<?xml version="1.0" encoding="UTF-8" standalone="no"?>
<svg
   xmlns:dc="http://purl.org/dc/elements/1.1/"
   xmlns:cc="http://creativecommons.org/ns#"
   xmlns:rdf="http://www.w3.org/1999/02/22-rdf-syntax-ns#"
   xmlns:svg="http://www.w3.org/2000/svg"
   xmlns="http://www.w3.org/2000/svg"
   xmlns:sodipodi="http://sodipodi.sourceforge.net/DTD/sodipodi-0.dtd"
   xmlns:inkscape="http://www.inkscape.org/namespaces/inkscape"
   version="1.1"
   width="24"
   height="24"
   viewBox="0 0 24.00 24.00"
   enable-background="new 0 0 24.00 24.00"
   xml:space="preserve"
   id="svg3396"
   inkscape:version="0.91 r13725"
   sodipodi:docname="moscow-would.svg"><metadata
     id="metadata3416"><rdf:RDF><cc:Work
         rdf:about=""><dc:format>image/svg+xml</dc:format><dc:type
           rdf:resource="http://purl.org/dc/dcmitype/StillImage" /><dc:title></dc:title></cc:Work></rdf:RDF></metadata><defs
     id="defs3414" /><sodipodi:namedview
     pagecolor="#ffffff"
     bordercolor="#666666"
     borderopacity="1"
     objecttolerance="10"
     gridtolerance="10"
     guidetolerance="10"
     inkscape:pageopacity="0"
     inkscape:pageshadow="2"
     inkscape:window-width="1863"
     inkscape:window-height="1059"
     id="namedview3412"
     showgrid="true"
     showguides="false"
     inkscape:zoom="30.083333"
     inkscape:cx="10.264153"
     inkscape:cy="13.660249"
     inkscape:window-x="1977"
     inkscape:window-y="21"
     inkscape:window-maximized="1"
     inkscape:current-layer="svg3396"><inkscape:grid
       type="xygrid"
       id="grid3422" /></sodipodi:namedview><path
     d="M 12 2 C 11.319786 2 10.65575 2.0697992 10.013672 2.1992188 C 9.0156574 2.4003821 8.0733446 2.7503325 7.2070312 3.2246094 C 7.2065419 3.2248773 7.2055675 3.2243414 7.2050781 3.2246094 A 10 10 0 0 0 7.1835938 3.2382812 C 6.9035211 3.3926041 6.630061 3.558707 6.3671875 3.7382812 A 10 10 0 0 0 6.2070312 3.8574219 C 5.996028 4.0078177 5.7882264 4.1621893 5.5898438 4.328125 A 10 10 0 0 0 5.3105469 4.5820312 C 5.167127 4.7114511 5.0224193 4.8391355 4.8867188 4.9765625 A 10 10 0 0 0 4.5722656 5.3222656 C 4.4555422 5.4520106 4.3364567 5.579093 4.2265625 5.7148438 A 10 10 0 0 0 3.9902344 6.0292969 C 3.8659364 6.1957663 3.7428512 6.3628661 3.6289062 6.5371094 A 10 10 0 0 0 3.4667969 6.8066406 C 3.3522284 6.9944505 3.2389813 7.1832172 3.1367188 7.3789062 A 10 10 0 0 0 2.9902344 7.6835938 C 2.8939054 7.8842297 2.7998591 8.0851838 2.7167969 8.2929688 A 10 10 0 0 0 2.6132812 8.578125 C 2.5353152 8.7918846 2.4599952 9.0062714 2.3964844 9.2265625 A 10 10 0 0 0 2.3105469 9.5625 C 2.2608506 9.7605828 2.2134624 9.9595359 2.1757812 10.162109 A 10 10 0 0 0 2.1074219 10.605469 C 2.0819681 10.787337 2.0585017 10.969429 2.0429688 11.154297 A 10 10 0 0 0 2 12 C 2 12.680208 2.0697994 13.344253 2.1992188 13.986328 C 2.4003817 14.984337 2.7503331 15.926656 3.2246094 16.792969 A 10 10 0 0 0 3.2382812 16.816406 C 3.3926039 17.096479 3.5587073 17.369939 3.7382812 17.632812 A 10 10 0 0 0 3.8574219 17.792969 C 4.0078175 18.003972 4.1621895 18.211773 4.328125 18.410156 A 10 10 0 0 0 4.5820312 18.689453 C 4.711451 18.832873 4.8391356 18.97758 4.9765625 19.113281 A 10 10 0 0 0 5.3222656 19.427734 C 5.4520105 19.544458 5.5790931 19.663543 5.7148438 19.773438 A 10 10 0 0 0 6.0292969 20.009766 C 6.1957662 20.134064 6.3628661 20.257148 6.5371094 20.371094 A 10 10 0 0 0 6.8066406 20.533203 C 6.9944505 20.647772 7.1832172 20.761018 7.3789062 20.863281 A 10 10 0 0 0 7.6835938 21.009766 C 7.8842297 21.106095 8.0851837 21.20014 8.2929688 21.283203 A 10 10 0 0 0 8.578125 21.386719 C 8.7918847 21.464685 9.0062712 21.540004 9.2265625 21.603516 A 10 10 0 0 0 9.5625 21.689453 C 9.7605829 21.73915 9.9595356 21.786537 10.162109 21.824219 A 10 10 0 0 0 10.605469 21.892578 C 10.787338 21.918032 10.969429 21.941498 11.154297 21.957031 A 10 10 0 0 0 12 22 C 12.680208 22 13.344253 21.930202 13.986328 21.800781 C 14.984337 21.599616 15.926656 21.24967 16.792969 20.775391 C 16.793458 20.775123 16.794433 20.775659 16.794922 20.775391 A 10 10 0 0 0 16.816406 20.761719 C 17.096479 20.607395 17.369939 20.441294 17.632812 20.261719 A 10 10 0 0 0 17.792969 20.142578 C 18.003972 19.992182 18.211773 19.837811 18.410156 19.671875 A 10 10 0 0 0 18.689453 19.417969 C 18.832873 19.288548 18.97758 19.160865 19.113281 19.023438 A 10 10 0 0 0 19.427734 18.677734 C 19.544458 18.547989 19.663543 18.420907 19.773438 18.285156 A 10 10 0 0 0 20.009766 17.970703 C 20.134064 17.804234 20.257148 17.637134 20.371094 17.462891 A 10 10 0 0 0 20.533203 17.193359 C 20.647772 17.005549 20.761018 16.816783 20.863281 16.621094 A 10 10 0 0 0 21.009766 16.316406 C 21.106095 16.11577 21.20014 15.914816 21.283203 15.707031 A 10 10 0 0 0 21.386719 15.421875 C 21.464685 15.208116 21.540004 14.993728 21.603516 14.773438 A 10 10 0 0 0 21.689453 14.4375 C 21.73915 14.239418 21.786537 14.040463 21.824219 13.837891 A 10 10 0 0 0 21.892578 13.394531 C 21.918032 13.212663 21.941498 13.03057 21.957031 12.845703 A 10 10 0 0 0 22 12 C 22 11.319787 21.930202 10.655749 21.800781 10.013672 C 21.599616 9.0156585 21.24967 8.0733445 20.775391 7.2070312 C 20.775123 7.2065419 20.775659 7.2055675 20.775391 7.2050781 A 10 10 0 0 0 20.761719 7.1835938 C 20.607395 6.9035211 20.441294 6.630061 20.261719 6.3671875 A 10 10 0 0 0 20.142578 6.2070312 C 19.992182 5.9960279 19.837811 5.7882265 19.671875 5.5898438 A 10 10 0 0 0 19.417969 5.3105469 C 19.288548 5.1671269 19.160865 5.0224194 19.023438 4.8867188 A 10 10 0 0 0 18.677734 4.5722656 C 18.547989 4.4555421 18.420907 4.3364568 18.285156 4.2265625 A 10 10 0 0 0 17.970703 3.9902344 C 17.804234 3.8659363 17.637134 3.7428513 17.462891 3.6289062 A 10 10 0 0 0 17.193359 3.4667969 C 17.005549 3.3522283 16.816783 3.2389814 16.621094 3.1367188 A 10 10 0 0 0 16.316406 2.9902344 C 16.11577 2.8939052 15.914816 2.7998592 15.707031 2.7167969 A 10 10 0 0 0 15.421875 2.6132812 C 15.208116 2.535315 14.993728 2.4599953 14.773438 2.3964844 A 10 10 0 0 0 14.4375 2.3105469 C 14.239418 2.2608505 14.040463 2.2134625 13.837891 2.1757812 A 10 10 0 0 0 13.394531 2.1074219 C 13.212663 2.081968 13.03057 2.0585017 12.845703 2.0429688 A 10 10 0 0 0 12 2 z M 12 4 A 8 8 0 0 1 12.798828 4.0390625 C 12.805267 4.0397007 12.811925 4.0403622 12.818359 4.0410156 A 8 8 0 0 1 15.113281 4.6289062 A 8 8 0 0 1 15.115234 4.6308594 A 8 8 0 0 1 15.832031 4.9765625 A 8 8 0 0 1 15.835938 4.9785156 C 15.892403 5.0094389 15.944372 5.0478427 16 5.0800781 A 8 8 0 0 1 16.486328 5.3769531 C 16.596407 5.4516589 16.698622 5.535278 16.804688 5.6152344 A 8 8 0 0 1 17.115234 5.8515625 C 17.217878 5.937075 17.31391 6.0306335 17.412109 6.1210938 A 8 8 0 0 1 17.689453 6.3808594 C 17.779052 6.4715724 17.862055 6.5691701 17.947266 6.6640625 A 8 8 0 0 1 18.216797 6.96875 C 18.297163 7.0679065 18.369677 7.1723965 18.445312 7.2753906 A 8 8 0 0 1 18.677734 7.6015625 C 18.739359 7.6949351 18.795756 7.7926189 18.853516 7.8886719 A 8 8 0 0 1 19.09375 8.3105469 C 19.134488 8.3886871 19.170778 8.4692008 19.208984 8.5488281 A 8 8 0 0 1 19.417969 9.015625 C 19.45652 9.1113284 19.490475 9.2091451 19.525391 9.3066406 A 8 8 0 0 1 19.677734 9.765625 C 19.706508 9.8646218 19.73085 9.9658655 19.755859 10.066406 A 8 8 0 0 1 19.861328 10.548828 C 19.880198 10.651591 19.895254 10.755279 19.910156 10.859375 A 8 8 0 0 1 19.964844 11.3125 C 19.984197 11.539487 20 11.768002 20 12 A 8 8 0 0 1 19.960938 12.798828 C 19.960299 12.805267 19.959638 12.811925 19.958984 12.818359 A 8 8 0 0 1 19.371094 15.113281 A 8 8 0 0 1 19.369141 15.115234 A 8 8 0 0 1 19.023438 15.832031 A 8 8 0 0 1 19.021484 15.835938 C 18.990561 15.892403 18.952157 15.944372 18.919922 16 A 8 8 0 0 1 18.623047 16.486328 C 18.548341 16.596407 18.464722 16.698622 18.384766 16.804688 A 8 8 0 0 1 18.148438 17.115234 C 18.062925 17.217878 17.969366 17.31391 17.878906 17.412109 A 8 8 0 0 1 17.619141 17.689453 C 17.528428 17.779052 17.43083 17.862055 17.335938 17.947266 A 8 8 0 0 1 17.03125 18.216797 C 16.932094 18.297163 16.827603 18.369677 16.724609 18.445312 A 8 8 0 0 1 16.398438 18.677734 C 16.305065 18.739359 16.207381 18.795756 16.111328 18.853516 A 8 8 0 0 1 15.689453 19.09375 C 15.611313 19.134488 15.530799 19.170778 15.451172 19.208984 A 8 8 0 0 1 14.984375 19.417969 C 14.888671 19.45652 14.790855 19.490475 14.693359 19.525391 A 8 8 0 0 1 14.234375 19.677734 C 14.135378 19.706508 14.034135 19.73085 13.933594 19.755859 A 8 8 0 0 1 13.451172 19.861328 C 13.348409 19.880198 13.244721 19.895254 13.140625 19.910156 A 8 8 0 0 1 12.6875 19.964844 C 12.460512 19.984197 12.231999 20 12 20 C 11.730464 20 11.463858 19.986973 11.201172 19.960938 A 8 8 0 0 1 11.181641 19.958984 A 8 8 0 0 1 8.8867188 19.371094 C 8.8859148 19.370754 8.8855694 19.369481 8.8847656 19.369141 A 8 8 0 0 1 8.1679688 19.023438 A 8 8 0 0 1 8 18.919922 A 8 8 0 0 1 7.5136719 18.623047 C 7.4035926 18.548341 7.3013781 18.464722 7.1953125 18.384766 A 8 8 0 0 1 6.8847656 18.148438 C 6.7821219 18.062925 6.6860903 17.969366 6.5878906 17.878906 A 8 8 0 0 1 6.3105469 17.619141 C 6.2209478 17.528428 6.1379452 17.43083 6.0527344 17.335938 A 8 8 0 0 1 5.7832031 17.03125 C 5.7028369 16.932094 5.6303233 16.827603 5.5546875 16.724609 A 8 8 0 0 1 5.3222656 16.398438 C 5.2606411 16.305065 5.2042441 16.207381 5.1464844 16.111328 A 8 8 0 0 1 4.90625 15.689453 C 4.8655116 15.611313 4.8292226 15.530799 4.7910156 15.451172 A 8 8 0 0 1 4.5820312 14.984375 C 4.5434796 14.888671 4.5095253 14.790855 4.4746094 14.693359 A 8 8 0 0 1 4.3222656 14.234375 C 4.2934923 14.135378 4.2691506 14.034135 4.2441406 13.933594 A 8 8 0 0 1 4.1386719 13.451172 C 4.119802 13.348409 4.104746 13.244721 4.0898438 13.140625 A 8 8 0 0 1 4.0351562 12.6875 C 4.015803 12.460512 4 12.231999 4 12 A 8 8 0 0 1 4.0410156 11.191406 C 4.041337 11.188204 4.0406905 11.184842 4.0410156 11.181641 A 8 8 0 0 1 4.6289062 8.8867188 C 4.6292463 8.8859148 4.6305191 8.8855694 4.6308594 8.8847656 A 8 8 0 0 1 4.9765625 8.1679688 A 8 8 0 0 1 5.0800781 8 A 8 8 0 0 1 5.3769531 7.5136719 C 5.4516589 7.4035926 5.535278 7.3013781 5.6152344 7.1953125 A 8 8 0 0 1 5.8515625 6.8847656 C 5.937075 6.7821219 6.0306335 6.6860903 6.1210938 6.5878906 A 8 8 0 0 1 6.3808594 6.3105469 C 6.4715724 6.2209478 6.5691701 6.1379452 6.6640625 6.0527344 A 8 8 0 0 1 6.96875 5.7832031 C 7.0679065 5.7028369 7.1723965 5.6303233 7.2753906 5.5546875 A 8 8 0 0 1 7.6015625 5.3222656 C 7.6949351 5.2606411 7.7926189 5.2042441 7.8886719 5.1464844 A 8 8 0 0 1 8.3105469 4.90625 C 8.3886871 4.8655116 8.4692008 4.8292226 8.5488281 4.7910156 A 8 8 0 0 1 9.015625 4.5820312 C 9.1113284 4.5434796 9.2091451 4.5095253 9.3066406 4.4746094 A 8 8 0 0 1 9.765625 4.3222656 C 9.8646218 4.2934923 9.9658655 4.2691506 10.066406 4.2441406 A 8 8 0 0 1 10.548828 4.1386719 C 10.651591 4.119802 10.755279 4.104746 10.859375 4.0898438 A 8 8 0 0 1 11.3125 4.0351562 C 11.539487 4.015803 11.768002 4 12 4 z M 6.2675781 7.7070312 L 8.4570312 16.292969 L 10.369141 16.292969 L 11.996094 10.888672 L 13.623047 16.292969 L 15.542969 16.292969 L 17.732422 7.7070312 L 15.519531 7.7070312 L 14.392578 13.173828 L 12.830078 7.7070312 L 11.169922 7.7070312 L 9.5996094 13.166016 L 8.4804688 7.7070312 L 6.2675781 7.7070312 z "
     id="path3402" /></svg>